<svg xmlns="http://www.w3.org/2000/svg" xmlns:xlink="http://www.w3.org/1999/xlink" width="500" zoomAndPan="magnify" viewBox="0 0 375 374.999991" height="500" preserveAspectRatio="xMidYMid meet" version="1.0"><defs><g/><clipPath id="77e460fe8d"><path d="M 14.730469 106.472656 L 356 106.472656 L 356 155 L 14.730469 155 Z M 14.730469 106.472656 " clip-rule="nonzero"/></clipPath></defs><g clip-path="url(#77e460fe8d)"><path fill="#ffffff" d="M 328.496094 141.324219 C 324.242188 140.523438 320.03125 139.46875 315.882812 138.179688 C 311.742188 136.875 307.648438 135.386719 303.601562 133.742188 C 299.554688 132.09375 295.53125 130.332031 291.503906 128.5 L 279.316406 122.925781 C 275.203125 121.058594 271.019531 119.21875 266.707031 117.476562 C 265.621094 117.050781 264.550781 116.609375 263.445312 116.195312 L 261.800781 115.570312 L 260.132812 114.964844 C 259.03125 114.554688 257.890625 114.179688 256.773438 113.785156 C 256.207031 113.59375 255.632812 113.414062 255.0625 113.226562 C 254.492188 113.042969 253.929688 112.847656 253.347656 112.679688 C 252.191406 112.328125 251.042969 111.972656 249.863281 111.652344 C 249.277344 111.492188 248.695312 111.320312 248.101562 111.167969 L 246.324219 110.722656 C 245.136719 110.425781 243.957031 110.117188 242.75 109.871094 L 240.949219 109.484375 C 240.347656 109.359375 239.75 109.222656 239.140625 109.121094 L 235.503906 108.46875 L 231.839844 107.921875 C 231.53125 107.878906 231.230469 107.828125 230.921875 107.792969 L 230 107.683594 L 228.160156 107.464844 C 227.542969 107.398438 226.933594 107.3125 226.316406 107.261719 L 224.46875 107.097656 C 219.542969 106.667969 214.597656 106.46875 209.671875 106.515625 C 204.746094 106.566406 199.84375 106.808594 194.988281 107.25 C 185.273438 108.121094 175.769531 109.765625 166.53125 111.890625 C 157.300781 114.046875 148.328125 116.695312 139.640625 119.742188 C 135.296875 121.265625 131.011719 122.867188 126.808594 124.578125 C 122.597656 126.28125 118.457031 128.066406 114.386719 129.929688 C 123.101562 127.015625 131.882812 124.261719 140.824219 121.898438 C 149.746094 119.503906 158.8125 117.484375 167.96875 115.910156 C 172.550781 115.121094 177.160156 114.488281 181.777344 113.96875 C 184.085938 113.699219 186.402344 113.5 188.714844 113.300781 L 192.1875 113.0625 C 193.347656 112.984375 194.507812 112.949219 195.664062 112.886719 C 200.296875 112.699219 204.921875 112.652344 209.519531 112.8125 L 212.960938 112.96875 C 214.109375 113.039062 215.246094 113.132812 216.390625 113.214844 L 217.246094 113.273438 L 218.09375 113.355469 L 219.796875 113.523438 C 220.363281 113.582031 220.933594 113.625 221.5 113.695312 L 223.1875 113.90625 L 224.878906 114.117188 C 225.441406 114.183594 225.996094 114.285156 226.554688 114.367188 L 228.226562 114.628906 L 229.0625 114.757812 C 229.34375 114.800781 229.617188 114.859375 229.894531 114.90625 L 233.203125 115.527344 L 236.46875 116.242188 C 237.015625 116.355469 237.546875 116.503906 238.085938 116.636719 L 239.699219 117.039062 C 240.78125 117.292969 241.828125 117.609375 242.886719 117.910156 L 244.472656 118.363281 C 244.996094 118.515625 245.515625 118.6875 246.035156 118.851562 C 247.082031 119.171875 248.113281 119.535156 249.148438 119.882812 C 257.40625 122.738281 265.300781 126.390625 273.21875 130.222656 C 281.140625 134.0625 289.113281 138.105469 297.667969 141.75 C 299.300781 142.449219 300.960938 143.128906 302.644531 143.785156 C 297.578125 144.175781 292.492188 144.46875 287.398438 144.683594 L 282.5625 144.863281 L 277.714844 144.980469 C 276.101562 145.027344 274.484375 145.027344 272.867188 145.050781 L 270.4375 145.074219 C 269.628906 145.085938 268.820312 145.074219 268.011719 145.074219 C 261.535156 145.105469 255.046875 144.96875 248.550781 144.777344 C 242.058594 144.585938 235.554688 144.285156 229.050781 143.925781 C 222.546875 143.5625 216.035156 143.148438 209.523438 142.667969 C 196.492188 141.734375 183.445312 140.605469 170.359375 139.503906 C 157.277344 138.398438 144.15625 137.296875 130.980469 136.410156 L 126.039062 136.082031 C 124.390625 135.96875 122.738281 135.867188 121.089844 135.769531 C 117.785156 135.574219 114.472656 135.40625 111.15625 135.253906 C 109.496094 135.175781 107.832031 135.121094 106.175781 135.050781 L 101.183594 134.898438 C 99.515625 134.867188 97.851562 134.828125 96.183594 134.8125 L 93.679688 134.792969 C 92.847656 134.785156 92.011719 134.785156 91.175781 134.789062 C 89.503906 134.800781 87.835938 134.796875 86.164062 134.839844 L 83.660156 134.886719 C 82.824219 134.90625 81.988281 134.9375 81.152344 134.96875 L 78.648438 135.066406 L 76.144531 135.195312 C 74.476562 135.273438 72.808594 135.402344 71.144531 135.515625 C 64.480469 136 57.855469 136.808594 51.339844 137.949219 C 44.824219 139.113281 38.441406 140.644531 32.3125 142.597656 C 26.1875 144.550781 20.304688 146.902344 14.871094 149.714844 C 26.613281 145.191406 39.277344 142.363281 52.113281 140.960938 C 64.96875 139.53125 78 139.503906 90.96875 140.09375 C 91.777344 140.125 92.589844 140.167969 93.402344 140.214844 L 95.832031 140.355469 C 97.453125 140.449219 99.078125 140.570312 100.695312 140.675781 L 105.5625 141.035156 C 107.183594 141.171875 108.804688 141.296875 110.425781 141.445312 C 113.667969 141.734375 116.910156 142.039062 120.15625 142.371094 C 123.402344 142.683594 126.65625 143.027344 129.902344 143.363281 C 142.898438 144.75 155.894531 146.242188 168.933594 147.695312 C 195 150.589844 221.292969 153.308594 247.960938 154.34375 C 261.285156 154.863281 274.695312 154.933594 288.113281 154.382812 C 294.816406 154.085938 301.527344 153.675781 308.210938 153.042969 C 314.898438 152.410156 321.558594 151.597656 328.179688 150.605469 L 355.816406 146.457031 Z M 328.496094 141.324219 " fill-opacity="1" fill-rule="nonzero"/></g><path fill="#0baee4" d="M 255.164062 169.601562 C 265.460938 171.851562 275.90625 173.515625 286.40625 174.476562 C 299.574219 175.683594 312.988281 175.855469 326.074219 173.742188 C 332.4375 172.710938 338.742188 171.121094 344.707031 168.652344 C 349.597656 166.628906 358.859375 163.335938 359.742188 157.253906 C 360.054688 155.097656 360.136719 151.835938 357.425781 150.152344 C 353.933594 147.988281 349.246094 150.171875 345.976562 151.414062 C 342.070312 152.898438 338.222656 154.480469 334.007812 155.632812 C 328.738281 157.074219 323.292969 158.273438 317.789062 159.339844 C 311.585938 160.539062 305.269531 161.621094 298.890625 162.425781 C 302.039062 162.949219 307.269531 163.65625 310.097656 164.007812 C 313.480469 164.425781 316.882812 164.796875 320.300781 165.09375 C 323.894531 165.402344 327.613281 165.636719 331.328125 165.761719 C 314.78125 169.082031 286.597656 171.996094 245.613281 167.289062 C 248.835938 168.113281 252.054688 168.921875 255.164062 169.601562 Z M 255.164062 169.601562 " fill-opacity="1" fill-rule="nonzero"/><g fill="#ffffff" fill-opacity="1"><g transform="translate(54.173184, 233.199169)"><g><path d="M 28.921875 -34.9375 C 29.085938 -34.9375 29.328125 -34.859375 29.640625 -34.703125 C 29.953125 -34.546875 30.109375 -34.128906 30.109375 -33.453125 L 30.109375 -30.109375 C 30.109375 -29.460938 29.953125 -29.0625 29.640625 -28.90625 C 29.328125 -28.75 29.085938 -28.671875 28.921875 -28.671875 L 4.53125 -28.671875 C 4.363281 -28.671875 4.128906 -28.753906 3.828125 -28.921875 C 3.535156 -29.085938 3.390625 -29.5 3.390625 -30.15625 L 3.390625 -33.421875 C 3.390625 -34.097656 3.535156 -34.519531 3.828125 -34.6875 C 4.128906 -34.851562 4.363281 -34.9375 4.53125 -34.9375 Z M 28.703125 -20.734375 C 28.878906 -20.734375 29.117188 -20.648438 29.421875 -20.484375 C 29.734375 -20.316406 29.890625 -19.90625 29.890625 -19.25 L 29.890625 -15.90625 C 29.890625 -15.25 29.734375 -14.84375 29.421875 -14.6875 C 29.117188 -14.53125 28.878906 -14.453125 28.703125 -14.453125 L 9.75 -14.453125 C 9.75 -14.453125 9.742188 -14.140625 9.734375 -13.515625 C 9.722656 -12.898438 9.71875 -12.097656 9.71875 -11.109375 C 9.71875 -10.117188 9.707031 -9.066406 9.6875 -7.953125 C 9.675781 -6.835938 9.671875 -5.785156 9.671875 -4.796875 C 9.671875 -3.804688 9.671875 -3 9.671875 -2.375 C 9.671875 -1.75 9.671875 -1.4375 9.671875 -1.4375 C 9.671875 -0.789062 9.515625 -0.378906 9.203125 -0.203125 C 8.890625 -0.0351562 8.648438 0.046875 8.484375 0.046875 L 4.578125 0.046875 C 4.410156 0.046875 4.171875 -0.0351562 3.859375 -0.203125 C 3.546875 -0.378906 3.390625 -0.789062 3.390625 -1.4375 L 3.484375 -17.8125 C 3.535156 -18.007812 3.597656 -18.195312 3.671875 -18.375 C 3.742188 -18.5625 3.820312 -18.738281 3.90625 -18.90625 C 4.582031 -20.007812 5.554688 -20.601562 6.828125 -20.6875 Z M 28.703125 -20.734375 "/></g></g></g><g fill="#ffffff" fill-opacity="1"><g transform="translate(113.029309, 233.199169)"><g><path d="M 8.484375 -34.9375 C 8.648438 -34.9375 8.890625 -34.851562 9.203125 -34.6875 C 9.515625 -34.519531 9.671875 -34.109375 9.671875 -33.453125 L 9.671875 -1.4375 C 9.671875 -0.789062 9.515625 -0.378906 9.203125 -0.203125 C 8.890625 -0.0351562 8.648438 0.046875 8.484375 0.046875 L 4.578125 0.046875 C 4.410156 0.046875 4.171875 -0.0351562 3.859375 -0.203125 C 3.546875 -0.378906 3.390625 -0.789062 3.390625 -1.4375 L 3.390625 -33.453125 C 3.390625 -34.109375 3.546875 -34.519531 3.859375 -34.6875 C 4.171875 -34.851562 4.410156 -34.9375 4.578125 -34.9375 Z M 8.484375 -34.9375 "/></g></g></g><g fill="#ffffff" fill-opacity="1"><g transform="translate(151.449399, 233.199169)"><g><path d="M 32.6875 -34.9375 C 32.882812 -34.9375 33.128906 -34.859375 33.421875 -34.703125 C 33.722656 -34.546875 33.875 -34.144531 33.875 -33.5 L 33.875 -13.265625 C 33.875 -12.078125 33.832031 -10.972656 33.75 -9.953125 C 33.664062 -8.941406 33.523438 -8.023438 33.328125 -7.203125 C 32.929688 -5.453125 32.328125 -4.066406 31.515625 -3.046875 C 30.691406 -1.972656 29.585938 -1.179688 28.203125 -0.671875 C 26.929688 -0.222656 25.332031 0 23.40625 0 L 13.859375 0 C 11.941406 0 10.347656 -0.222656 9.078125 -0.671875 C 8.421875 -0.929688 7.8125 -1.257812 7.25 -1.65625 C 6.6875 -2.050781 6.207031 -2.515625 5.8125 -3.046875 C 4.9375 -4.128906 4.3125 -5.515625 3.9375 -7.203125 C 3.738281 -8.023438 3.597656 -8.941406 3.515625 -9.953125 C 3.429688 -10.972656 3.390625 -12.078125 3.390625 -13.265625 L 3.390625 -33.5 C 3.390625 -34.144531 3.546875 -34.546875 3.859375 -34.703125 C 4.171875 -34.859375 4.425781 -34.9375 4.625 -34.9375 L 8.484375 -34.9375 C 8.679688 -34.9375 8.925781 -34.859375 9.21875 -34.703125 C 9.519531 -34.546875 9.671875 -34.144531 9.671875 -33.5 L 9.671875 -12.59375 C 9.671875 -11.96875 9.691406 -11.378906 9.734375 -10.828125 C 9.773438 -10.285156 9.820312 -9.816406 9.875 -9.421875 C 10.050781 -8.648438 10.296875 -8.007812 10.609375 -7.5 C 10.941406 -7.082031 11.363281 -6.773438 11.875 -6.578125 C 12.15625 -6.492188 12.476562 -6.421875 12.84375 -6.359375 C 13.21875 -6.304688 13.628906 -6.28125 14.078125 -6.28125 L 23.234375 -6.28125 C 23.691406 -6.28125 24.101562 -6.304688 24.46875 -6.359375 C 24.832031 -6.421875 25.15625 -6.492188 25.4375 -6.578125 C 25.945312 -6.773438 26.375 -7.082031 26.71875 -7.5 C 26.851562 -7.726562 26.984375 -8.003906 27.109375 -8.328125 C 27.242188 -8.660156 27.335938 -9.023438 27.390625 -9.421875 C 27.453125 -9.816406 27.503906 -10.285156 27.546875 -10.828125 C 27.585938 -11.378906 27.609375 -11.96875 27.609375 -12.59375 L 27.609375 -33.5 C 27.609375 -34.144531 27.753906 -34.546875 28.046875 -34.703125 C 28.347656 -34.859375 28.597656 -34.9375 28.796875 -34.9375 Z M 32.6875 -34.9375 "/></g></g></g><g fill="#ffffff" fill-opacity="1"><g transform="translate(214.078973, 233.199169)"><g><path d="M 38.796875 -34.9375 C 40.210938 -34.9375 41.175781 -34.484375 41.6875 -33.578125 C 42.132812 -32.785156 42.359375 -31.414062 42.359375 -29.46875 L 42.359375 -1.4375 C 42.359375 -0.789062 42.203125 -0.378906 41.890625 -0.203125 C 41.585938 -0.0351562 41.335938 0.046875 41.140625 0.046875 L 37.484375 0.046875 C 37.316406 0.046875 37.078125 -0.0351562 36.765625 -0.203125 C 36.453125 -0.378906 36.296875 -0.789062 36.296875 -1.4375 L 36.296875 -26.921875 C 36.296875 -26.953125 36.296875 -26.972656 36.296875 -26.984375 C 36.296875 -27.003906 36.296875 -27.015625 36.296875 -27.015625 L 36.09375 -27.015625 C 36.03125 -27.015625 36 -26.984375 36 -26.921875 L 28.703125 -8.953125 C 28.421875 -8.078125 28.125 -7.3125 27.8125 -6.65625 C 27.675781 -6.34375 27.515625 -6.054688 27.328125 -5.796875 C 27.148438 -5.546875 26.972656 -5.3125 26.796875 -5.09375 C 26.378906 -4.632812 25.925781 -4.320312 25.4375 -4.15625 C 24.988281 -3.988281 24.425781 -3.90625 23.75 -3.90625 L 22.015625 -3.90625 C 21.390625 -3.90625 20.820312 -3.988281 20.3125 -4.15625 C 20.0625 -4.238281 19.828125 -4.363281 19.609375 -4.53125 C 19.398438 -4.707031 19.179688 -4.894531 18.953125 -5.09375 C 18.585938 -5.539062 18.25 -6.0625 17.9375 -6.65625 C 17.65625 -7.3125 17.359375 -8.078125 17.046875 -8.953125 L 9.796875 -26.890625 C 9.765625 -26.972656 9.722656 -27.015625 9.671875 -27.015625 L 9.453125 -27.015625 C 9.453125 -27.015625 9.453125 -27.003906 9.453125 -26.984375 C 9.453125 -26.972656 9.453125 -26.953125 9.453125 -26.921875 L 9.453125 -1.4375 C 9.453125 -0.789062 9.300781 -0.378906 9 -0.203125 C 8.707031 -0.0351562 8.460938 0.046875 8.265625 0.046875 L 4.625 0.046875 C 4.425781 0.046875 4.171875 -0.0351562 3.859375 -0.203125 C 3.546875 -0.378906 3.390625 -0.789062 3.390625 -1.4375 L 3.390625 -29.46875 C 3.390625 -31.414062 3.617188 -32.785156 4.078125 -33.578125 C 4.578125 -34.484375 5.550781 -34.9375 7 -34.9375 L 10.890625 -34.9375 C 11.515625 -34.9375 12.007812 -34.878906 12.375 -34.765625 C 12.863281 -34.628906 13.257812 -34.421875 13.5625 -34.140625 C 13.707031 -33.960938 13.859375 -33.773438 14.015625 -33.578125 C 14.171875 -33.378906 14.304688 -33.15625 14.421875 -32.90625 C 14.535156 -32.65625 14.65625 -32.363281 14.78125 -32.03125 C 14.90625 -31.707031 15.023438 -31.347656 15.140625 -30.953125 L 22.609375 -12.21875 C 22.628906 -12.125 22.65625 -12.070312 22.6875 -12.0625 C 22.71875 -12.050781 22.734375 -12.046875 22.734375 -12.046875 L 23.15625 -12.046875 C 23.207031 -12.046875 23.25 -12.101562 23.28125 -12.21875 L 30.78125 -30.953125 C 30.925781 -31.347656 31.054688 -31.707031 31.171875 -32.03125 C 31.285156 -32.363281 31.398438 -32.65625 31.515625 -32.90625 C 31.648438 -33.15625 31.785156 -33.378906 31.921875 -33.578125 C 32.066406 -33.773438 32.210938 -33.960938 32.359375 -34.140625 C 32.691406 -34.453125 33.070312 -34.660156 33.5 -34.765625 C 33.863281 -34.878906 34.359375 -34.9375 34.984375 -34.9375 Z M 38.796875 -34.9375 "/></g></g></g><g fill="#ffffff" fill-opacity="1"><g transform="translate(285.188229, 233.199169)"><g><path d="M 28.875 -7.59375 C 29.070312 -7.59375 29.328125 -7.515625 29.640625 -7.359375 C 29.953125 -7.203125 30.109375 -6.800781 30.109375 -6.15625 L 30.109375 -1.484375 C 30.109375 -0.835938 29.953125 -0.4375 29.640625 -0.28125 C 29.328125 -0.125 29.070312 -0.046875 28.875 -0.046875 L 13.828125 -0.046875 C 12.890625 -0.046875 12.023438 -0.0976562 11.234375 -0.203125 C 10.441406 -0.316406 9.722656 -0.503906 9.078125 -0.765625 C 7.691406 -1.242188 6.585938 -2.019531 5.765625 -3.09375 C 4.921875 -4.195312 4.3125 -5.582031 3.9375 -7.25 C 3.800781 -7.957031 3.679688 -8.734375 3.578125 -9.578125 C 3.484375 -10.429688 3.421875 -11.351562 3.390625 -12.34375 L 3.390625 -12.546875 L 3.484375 -17.890625 C 3.566406 -18.203125 3.71875 -18.554688 3.9375 -18.953125 C 4.5625 -20.054688 5.523438 -20.648438 6.828125 -20.734375 L 28.703125 -20.78125 C 28.878906 -20.78125 29.117188 -20.703125 29.421875 -20.546875 C 29.734375 -20.390625 29.890625 -19.988281 29.890625 -19.34375 L 29.890625 -15.984375 C 29.890625 -15.335938 29.734375 -14.925781 29.421875 -14.75 C 29.117188 -14.582031 28.878906 -14.5 28.703125 -14.5 L 9.75 -14.5 C 9.75 -14.5 9.742188 -14.34375 9.734375 -14.03125 C 9.722656 -13.71875 9.707031 -13.363281 9.6875 -12.96875 C 9.675781 -12.570312 9.671875 -12.21875 9.671875 -11.90625 C 9.671875 -11.601562 9.671875 -11.453125 9.671875 -11.453125 C 9.703125 -11.335938 9.71875 -11.210938 9.71875 -11.078125 C 9.71875 -10.953125 9.726562 -10.835938 9.75 -10.734375 C 9.863281 -9.941406 10.101562 -9.304688 10.46875 -8.828125 C 10.8125 -8.398438 11.238281 -8.085938 11.75 -7.890625 C 12.0625 -7.804688 12.390625 -7.734375 12.734375 -7.671875 C 13.085938 -7.617188 13.492188 -7.59375 13.953125 -7.59375 Z M 7.125 -20.390625 Z M 28.921875 -35.03125 C 29.085938 -35.03125 29.328125 -34.941406 29.640625 -34.765625 C 29.953125 -34.597656 30.109375 -34.191406 30.109375 -33.546875 L 30.109375 -30.1875 C 30.109375 -29.539062 29.953125 -29.128906 29.640625 -28.953125 C 29.328125 -28.785156 29.085938 -28.703125 28.921875 -28.703125 L 4.53125 -28.75 C 4.363281 -28.75 4.128906 -28.828125 3.828125 -28.984375 C 3.535156 -29.140625 3.390625 -29.539062 3.390625 -30.1875 L 3.390625 -33.5 C 3.390625 -34.175781 3.535156 -34.597656 3.828125 -34.765625 C 4.128906 -34.941406 4.363281 -35.03125 4.53125 -35.03125 Z M 28.921875 -35.03125 "/></g></g></g><g fill="#0baee4" fill-opacity="1"><g transform="translate(111.933681, 263.421369)"><g><path d="M 11.96875 -8.453125 C 12.125 -8.296875 12.203125 -8.113281 12.203125 -7.90625 L 12.203125 -0.3125 C 12.203125 -0.226562 12.171875 -0.15625 12.109375 -0.09375 C 12.046875 -0.03125 11.972656 0 11.890625 0 L 10.46875 0 C 10.382812 0 10.3125 -0.03125 10.25 -0.09375 C 10.1875 -0.15625 10.15625 -0.226562 10.15625 -0.3125 L 10.15625 -3.484375 L 2.703125 -3.484375 L 2.703125 -0.3125 C 2.703125 -0.226562 2.664062 -0.15625 2.59375 -0.09375 C 2.53125 -0.03125 2.457031 0 2.375 0 L 0.953125 0 C 0.867188 0 0.796875 -0.03125 0.734375 -0.09375 C 0.671875 -0.15625 0.640625 -0.226562 0.640625 -0.3125 L 0.640625 -7.90625 C 0.640625 -8.113281 0.71875 -8.296875 0.875 -8.453125 L 2.734375 -10.359375 C 2.910156 -10.523438 3.125 -10.609375 3.375 -10.609375 L 9.46875 -10.609375 C 9.726562 -10.609375 9.941406 -10.523438 10.109375 -10.359375 Z M 2.703125 -5.328125 L 10.15625 -5.328125 L 10.15625 -7.34375 C 10.15625 -7.488281 10.101562 -7.609375 10 -7.703125 L 9.328125 -8.34375 L 9.1875 -8.453125 C 9.132812 -8.492188 9.066406 -8.515625 8.984375 -8.515625 L 3.859375 -8.515625 C 3.765625 -8.515625 3.695312 -8.492188 3.65625 -8.453125 L 3.53125 -8.34375 L 2.84375 -7.703125 C 2.75 -7.609375 2.703125 -7.488281 2.703125 -7.34375 Z M 2.703125 -5.328125 "/></g></g></g><g fill="#0baee4" fill-opacity="1"><g transform="translate(129.020344, 263.421369)"><g><path d="M 0.640625 -10.296875 C 0.640625 -10.378906 0.671875 -10.453125 0.734375 -10.515625 C 0.796875 -10.578125 0.867188 -10.609375 0.953125 -10.609375 L 2.375 -10.609375 C 2.457031 -10.609375 2.53125 -10.578125 2.59375 -10.515625 C 2.664062 -10.453125 2.703125 -10.378906 2.703125 -10.296875 L 2.703125 -3.265625 C 2.703125 -3.128906 2.75 -3.007812 2.84375 -2.90625 L 3.65625 -2.171875 C 3.695312 -2.128906 3.765625 -2.109375 3.859375 -2.109375 L 8.984375 -2.109375 C 9.066406 -2.109375 9.132812 -2.128906 9.1875 -2.171875 L 10 -2.90625 C 10.101562 -2.988281 10.15625 -3.109375 10.15625 -3.265625 L 10.15625 -10.296875 C 10.15625 -10.378906 10.1875 -10.453125 10.25 -10.515625 C 10.3125 -10.578125 10.382812 -10.609375 10.46875 -10.609375 L 11.890625 -10.609375 C 11.972656 -10.609375 12.046875 -10.578125 12.109375 -10.515625 C 12.171875 -10.453125 12.203125 -10.378906 12.203125 -10.296875 L 12.203125 -2.5625 C 12.203125 -2.34375 12.125 -2.160156 11.96875 -2.015625 L 10.109375 -0.25 C 10.023438 -0.1875 9.929688 -0.128906 9.828125 -0.078125 C 9.734375 -0.0234375 9.613281 0 9.46875 0 L 3.375 0 C 3.226562 0 3.109375 -0.0234375 3.015625 -0.078125 C 2.929688 -0.128906 2.835938 -0.1875 2.734375 -0.25 L 0.875 -2.015625 C 0.71875 -2.171875 0.640625 -2.351562 0.640625 -2.5625 Z M 0.640625 -10.296875 "/></g></g></g><g fill="#0baee4" fill-opacity="1"><g transform="translate(146.107007, 263.421369)"><g><path d="M 14.125 -10.609375 C 14.207031 -10.609375 14.28125 -10.578125 14.34375 -10.515625 C 14.40625 -10.453125 14.4375 -10.378906 14.4375 -10.296875 L 14.4375 -8.703125 C 14.4375 -8.617188 14.40625 -8.546875 14.34375 -8.484375 C 14.28125 -8.421875 14.207031 -8.390625 14.125 -8.390625 L 8.65625 -8.390625 L 8.65625 -0.3125 C 8.65625 -0.226562 8.625 -0.15625 8.5625 -0.09375 C 8.5 -0.03125 8.425781 0 8.34375 0 L 6.75 0 C 6.664062 0 6.59375 -0.03125 6.53125 -0.09375 C 6.46875 -0.15625 6.4375 -0.226562 6.4375 -0.3125 L 6.4375 -8.390625 L 0.953125 -8.390625 C 0.867188 -8.390625 0.796875 -8.421875 0.734375 -8.484375 C 0.671875 -8.546875 0.640625 -8.617188 0.640625 -8.703125 L 0.640625 -10.296875 C 0.640625 -10.378906 0.671875 -10.453125 0.734375 -10.515625 C 0.796875 -10.578125 0.867188 -10.609375 0.953125 -10.609375 Z M 14.125 -10.609375 "/></g></g></g><g fill="#0baee4" fill-opacity="1"><g transform="translate(165.422052, 263.421369)"><g><path d="M 0.640625 -2.71875 L 0.640625 -7.90625 C 0.640625 -8.113281 0.71875 -8.296875 0.875 -8.453125 L 2.734375 -10.359375 C 2.910156 -10.523438 3.125 -10.609375 3.375 -10.609375 L 9.46875 -10.609375 C 9.726562 -10.609375 9.941406 -10.523438 10.109375 -10.359375 L 11.96875 -8.453125 C 12.125 -8.296875 12.203125 -8.113281 12.203125 -7.90625 L 12.203125 -2.71875 C 12.203125 -2.507812 12.125 -2.328125 11.96875 -2.171875 L 10.109375 -0.25 C 9.941406 -0.0820312 9.726562 0 9.46875 0 L 3.375 0 C 3.125 0 2.910156 -0.0820312 2.734375 -0.25 L 0.875 -2.171875 C 0.71875 -2.328125 0.640625 -2.507812 0.640625 -2.71875 Z M 2.703125 -3.265625 C 2.703125 -3.128906 2.75 -3.007812 2.84375 -2.90625 L 3.53125 -2.265625 L 3.65625 -2.171875 C 3.695312 -2.128906 3.765625 -2.109375 3.859375 -2.109375 L 8.984375 -2.109375 C 9.066406 -2.109375 9.132812 -2.128906 9.1875 -2.171875 L 9.328125 -2.265625 L 10 -2.90625 C 10.101562 -3.007812 10.15625 -3.128906 10.15625 -3.265625 L 10.15625 -7.34375 C 10.15625 -7.488281 10.101562 -7.609375 10 -7.703125 L 9.328125 -8.34375 L 9.1875 -8.453125 C 9.132812 -8.492188 9.066406 -8.515625 8.984375 -8.515625 L 3.859375 -8.515625 C 3.765625 -8.515625 3.695312 -8.492188 3.65625 -8.453125 L 3.53125 -8.34375 L 2.84375 -7.703125 C 2.75 -7.609375 2.703125 -7.488281 2.703125 -7.34375 Z M 2.703125 -3.265625 "/></g></g></g><g fill="#0baee4" fill-opacity="1"><g transform="translate(182.508715, 263.421369)"><g><path d="M 5.84375 -11.421875 L 4.65625 -12.671875 C 4.550781 -12.773438 4.5 -12.90625 4.5 -13.0625 L 4.5 -13.71875 C 4.5 -13.832031 4.554688 -13.890625 4.671875 -13.890625 L 5.71875 -13.890625 C 5.820312 -13.890625 5.875 -13.832031 5.875 -13.71875 L 5.875 -13.421875 C 5.875 -13.335938 5.921875 -13.253906 6.015625 -13.171875 L 6.4375 -12.765625 L 6.859375 -13.171875 C 6.941406 -13.253906 6.984375 -13.335938 6.984375 -13.421875 L 6.984375 -13.71875 C 6.984375 -13.832031 7.039062 -13.890625 7.15625 -13.890625 L 8.203125 -13.890625 C 8.304688 -13.890625 8.359375 -13.832031 8.359375 -13.71875 L 8.359375 -13.0625 C 8.359375 -12.90625 8.3125 -12.773438 8.21875 -12.671875 L 7.03125 -11.421875 C 6.925781 -11.304688 6.785156 -11.25 6.609375 -11.25 L 6.265625 -11.25 C 6.078125 -11.25 5.9375 -11.304688 5.84375 -11.421875 Z M 11.953125 -4.90625 C 12.117188 -4.757812 12.203125 -4.546875 12.203125 -4.265625 L 12.203125 -2.5 C 12.203125 -2.40625 12.175781 -2.304688 12.125 -2.203125 C 12.082031 -2.109375 12.023438 -2.023438 11.953125 -1.953125 L 10.25 -0.25 C 10.082031 -0.0820312 9.878906 0 9.640625 0 L 1.3125 0 C 1.226562 0 1.15625 -0.03125 1.09375 -0.09375 C 1.03125 -0.15625 1 -0.226562 1 -0.3125 L 1 -1.78125 C 1 -1.863281 1.03125 -1.9375 1.09375 -2 C 1.15625 -2.070312 1.226562 -2.109375 1.3125 -2.109375 L 9.046875 -2.109375 C 9.117188 -2.109375 9.222656 -2.160156 9.359375 -2.265625 L 9.828125 -2.703125 C 9.929688 -2.796875 9.984375 -2.914062 9.984375 -3.0625 L 9.984375 -3.5625 C 9.984375 -3.644531 9.960938 -3.71875 9.921875 -3.78125 L 9.59375 -4.15625 C 9.5 -4.257812 9.378906 -4.3125 9.234375 -4.3125 L 2.9375 -4.3125 C 2.832031 -4.3125 2.726562 -4.332031 2.625 -4.375 C 2.53125 -4.425781 2.445312 -4.484375 2.375 -4.546875 L 0.890625 -5.984375 C 0.722656 -6.160156 0.640625 -6.375 0.640625 -6.625 L 0.640625 -8.109375 C 0.640625 -8.222656 0.664062 -8.328125 0.71875 -8.421875 C 0.78125 -8.523438 0.835938 -8.601562 0.890625 -8.65625 L 2.59375 -10.359375 C 2.757812 -10.523438 2.960938 -10.609375 3.203125 -10.609375 L 11.3125 -10.609375 C 11.394531 -10.609375 11.46875 -10.578125 11.53125 -10.515625 C 11.601562 -10.453125 11.640625 -10.378906 11.640625 -10.296875 L 11.640625 -8.828125 C 11.640625 -8.742188 11.601562 -8.671875 11.53125 -8.609375 C 11.46875 -8.546875 11.394531 -8.515625 11.3125 -8.515625 L 3.796875 -8.515625 C 3.722656 -8.515625 3.617188 -8.457031 3.484375 -8.34375 L 3.015625 -7.921875 C 2.910156 -7.816406 2.859375 -7.695312 2.859375 -7.5625 L 2.859375 -7.109375 C 2.859375 -7.035156 2.882812 -6.96875 2.9375 -6.90625 L 3.25 -6.515625 C 3.34375 -6.421875 3.460938 -6.375 3.609375 -6.375 L 10.125 -6.375 C 10.238281 -6.375 10.34375 -6.351562 10.4375 -6.3125 C 10.53125 -6.269531 10.613281 -6.210938 10.6875 -6.140625 Z M 11.953125 -4.90625 "/></g></g></g><g fill="#0baee4" fill-opacity="1"><g transform="translate(199.595378, 263.421369)"><g><path d="M 12.203125 -8.65625 C 12.203125 -8.476562 12.160156 -8.328125 12.078125 -8.203125 L 10.59375 -5.609375 L 11.953125 -4.265625 C 12.117188 -4.097656 12.203125 -3.882812 12.203125 -3.625 L 12.203125 -0.3125 C 12.203125 -0.226562 12.171875 -0.15625 12.109375 -0.09375 C 12.046875 -0.03125 11.972656 0 11.890625 0 L 10.296875 0 C 10.210938 0 10.140625 -0.03125 10.078125 -0.09375 C 10.015625 -0.15625 9.984375 -0.226562 9.984375 -0.3125 L 9.984375 -2.71875 C 9.984375 -2.800781 9.960938 -2.875 9.921875 -2.9375 L 9.8125 -3.0625 L 8.953125 -3.953125 C 8.859375 -4.046875 8.738281 -4.09375 8.59375 -4.09375 L 2.859375 -4.09375 L 2.859375 -0.3125 C 2.859375 -0.226562 2.828125 -0.15625 2.765625 -0.09375 C 2.703125 -0.03125 2.628906 0 2.546875 0 L 0.953125 0 C 0.867188 0 0.796875 -0.03125 0.734375 -0.09375 C 0.671875 -0.15625 0.640625 -0.226562 0.640625 -0.3125 L 0.640625 -10.296875 C 0.640625 -10.378906 0.671875 -10.453125 0.734375 -10.515625 C 0.796875 -10.578125 0.867188 -10.609375 0.953125 -10.609375 L 2.546875 -10.609375 C 2.628906 -10.609375 2.703125 -10.578125 2.765625 -10.515625 C 2.828125 -10.453125 2.859375 -10.378906 2.859375 -10.296875 L 2.859375 -6.375 L 8.453125 -6.375 L 9.984375 -9.03125 L 9.984375 -10.296875 C 9.984375 -10.378906 10.015625 -10.453125 10.078125 -10.515625 C 10.140625 -10.578125 10.210938 -10.609375 10.296875 -10.609375 L 11.890625 -10.609375 C 11.972656 -10.609375 12.046875 -10.578125 12.109375 -10.515625 C 12.171875 -10.453125 12.203125 -10.378906 12.203125 -10.296875 Z M 12.203125 -8.65625 "/></g></g></g><g fill="#0baee4" fill-opacity="1"><g transform="translate(216.682041, 263.421369)"><g><path d="M 0.640625 -2.71875 L 0.640625 -7.90625 C 0.640625 -8.113281 0.71875 -8.296875 0.875 -8.453125 L 2.734375 -10.359375 C 2.910156 -10.523438 3.125 -10.609375 3.375 -10.609375 L 9.46875 -10.609375 C 9.726562 -10.609375 9.941406 -10.523438 10.109375 -10.359375 L 11.96875 -8.453125 C 12.125 -8.296875 12.203125 -8.113281 12.203125 -7.90625 L 12.203125 -2.71875 C 12.203125 -2.507812 12.125 -2.328125 11.96875 -2.171875 L 10.109375 -0.25 C 9.941406 -0.0820312 9.726562 0 9.46875 0 L 3.375 0 C 3.125 0 2.910156 -0.0820312 2.734375 -0.25 L 0.875 -2.171875 C 0.71875 -2.328125 0.640625 -2.507812 0.640625 -2.71875 Z M 2.703125 -3.265625 C 2.703125 -3.128906 2.75 -3.007812 2.84375 -2.90625 L 3.53125 -2.265625 L 3.65625 -2.171875 C 3.695312 -2.128906 3.765625 -2.109375 3.859375 -2.109375 L 8.984375 -2.109375 C 9.066406 -2.109375 9.132812 -2.128906 9.1875 -2.171875 L 9.328125 -2.265625 L 10 -2.90625 C 10.101562 -3.007812 10.15625 -3.128906 10.15625 -3.265625 L 10.15625 -7.34375 C 10.15625 -7.488281 10.101562 -7.609375 10 -7.703125 L 9.328125 -8.34375 L 9.1875 -8.453125 C 9.132812 -8.492188 9.066406 -8.515625 8.984375 -8.515625 L 3.859375 -8.515625 C 3.765625 -8.515625 3.695312 -8.492188 3.65625 -8.453125 L 3.53125 -8.34375 L 2.84375 -7.703125 C 2.75 -7.609375 2.703125 -7.488281 2.703125 -7.34375 Z M 2.703125 -3.265625 "/></g></g></g><g fill="#0baee4" fill-opacity="1"><g transform="translate(233.76871, 263.421369)"><g><path d="M 0.640625 -10.296875 C 0.640625 -10.378906 0.671875 -10.453125 0.734375 -10.515625 C 0.796875 -10.578125 0.867188 -10.609375 0.953125 -10.609375 L 2.546875 -10.609375 C 2.628906 -10.609375 2.703125 -10.578125 2.765625 -10.515625 C 2.828125 -10.453125 2.859375 -10.378906 2.859375 -10.296875 L 2.859375 -3.375 C 2.859375 -3.226562 2.910156 -3.109375 3.015625 -3.015625 L 3.796875 -2.265625 C 3.910156 -2.160156 4.019531 -2.109375 4.125 -2.109375 L 11.25 -2.109375 C 11.332031 -2.109375 11.40625 -2.070312 11.46875 -2 C 11.539062 -1.9375 11.578125 -1.863281 11.578125 -1.78125 L 11.578125 -0.3125 C 11.578125 -0.226562 11.539062 -0.15625 11.46875 -0.09375 C 11.40625 -0.03125 11.332031 0 11.25 0 L 3.421875 0 C 3.179688 0 2.972656 -0.0820312 2.796875 -0.25 L 0.890625 -2.171875 C 0.835938 -2.234375 0.78125 -2.3125 0.71875 -2.40625 C 0.664062 -2.507812 0.640625 -2.613281 0.640625 -2.71875 Z M 0.640625 -10.296875 "/></g></g></g><g fill="#0baee4" fill-opacity="1"><g transform="translate(250.218698, 263.421369)"><g><path d="M 11.96875 -8.453125 C 12.125 -8.296875 12.203125 -8.113281 12.203125 -7.90625 L 12.203125 -0.3125 C 12.203125 -0.226562 12.171875 -0.15625 12.109375 -0.09375 C 12.046875 -0.03125 11.972656 0 11.890625 0 L 10.46875 0 C 10.382812 0 10.3125 -0.03125 10.25 -0.09375 C 10.1875 -0.15625 10.15625 -0.226562 10.15625 -0.3125 L 10.15625 -3.484375 L 2.703125 -3.484375 L 2.703125 -0.3125 C 2.703125 -0.226562 2.664062 -0.15625 2.59375 -0.09375 C 2.53125 -0.03125 2.457031 0 2.375 0 L 0.953125 0 C 0.867188 0 0.796875 -0.03125 0.734375 -0.09375 C 0.671875 -0.15625 0.640625 -0.226562 0.640625 -0.3125 L 0.640625 -7.90625 C 0.640625 -8.113281 0.71875 -8.296875 0.875 -8.453125 L 2.734375 -10.359375 C 2.910156 -10.523438 3.125 -10.609375 3.375 -10.609375 L 9.46875 -10.609375 C 9.726562 -10.609375 9.941406 -10.523438 10.109375 -10.359375 Z M 2.703125 -5.328125 L 10.15625 -5.328125 L 10.15625 -7.34375 C 10.15625 -7.488281 10.101562 -7.609375 10 -7.703125 L 9.328125 -8.34375 L 9.1875 -8.453125 C 9.132812 -8.492188 9.066406 -8.515625 8.984375 -8.515625 L 3.859375 -8.515625 C 3.765625 -8.515625 3.695312 -8.492188 3.65625 -8.453125 L 3.53125 -8.34375 L 2.84375 -7.703125 C 2.75 -7.609375 2.703125 -7.488281 2.703125 -7.34375 Z M 2.703125 -5.328125 "/></g></g></g></svg>